# xmcd
#
# Track frame offsets:
#	150
#	16417
#	46968
#	73525
#	89191
#	116625
#	146274
#	175590
#	210747
#	244589
#	270868
#	292459
#	330291
#
# Disc length: 4636 seconds
#
# Revision: 1
# Processed by: cddbd v1.5.2PL0 Copyright (c) Steve Scherf et al.
# Submitted via: EasyCDDAExtractor 15.2.5.1
#
DISCID=ba121a0d
DTITLE=Various Artist - Sunshine House Volume 1 CD1 BPM HOUSE
DYEAR=2002
DGENRE=House
TTITLE0=Gardeweg - All I want
TTITLE1=Knee Deep Feat. Kenny Bobien - If You Love Me
TTITLE2=Deep Area Feat. Robert - Be The Star In My Life
TTITLE3=Chicco Secci and Robbie Rivera Pres. Soul Logic - Let's Get Together
TTITLE4=Future Funk - Road Track
TTITLE5=Mimmo M/ - I Miss You
TTITLE6=Groovemaster K and 88 Keys - Get Up
TTITLE7=Dajae and Full Intention - What Do You Want
TTITLE8=Airman - Air's House Theme
TTITLE9=Havana Boys Pres. The Egocentric - Shaolin
TTITLE10=Major Boys Feat. Aurelia - Sous Le Soleil
TTITLE11=KM5 vs. Casey - This Is What I Call Love
TTITLE12=Phosgen - 4 The Bassline
EXTD=
EXTT0=
EXTT1=
EXTT2=
EXTT3=
EXTT4=
EXTT5=
EXTT6=
EXTT7=
EXTT8=
EXTT9=
EXTT10=
EXTT11=
EXTT12=
PLAYORDER=
